g Mesh1
# Vertex Positions: 120
v 0.9999999 0 -7.117533E-07
v 0.9999999 0 -15
v 3 0 -15
v 3 0 -7.117533E-07
v -1 0 -7.117533E-07
v -3 0 -7.117533E-07
v -3 0 -15
v -1 0 -15
v 0.9999999 0 0.9999943
v -1 0 0.9999943
v 4 -1 0.9999943
v -4 -1 0.9999943
v -4 0 0.9999943
v 4 0 0.9999943
v 4 -1 -15.99999
v 4 0 -15.99999
v -4 -1 -15.99999
v -4 0 -15.99999
v 3 6 -15
v 3 6 -2.033791E-07
v 4 7.000012 -16.00002
v 4 7.000011 1.000013
v 3 7.000011 1.000013
v 3 7.000012 -16.00002
v 4 -7.867813E-06 1.000013
v 3 -7.867813E-06 1.000013
v 4 -6.198883E-06 -16.00002
v 3 -6.198883E-06 -16.00002
v -3 6 -6.52168E-07
v -3 6 -15
v -4 7.000011 1.000012
v -4 7.000012 -16.00002
v -3 7.000012 -16.00002
v -3 7.000011 1.000012
v -4 -6.437302E-06 -16.00002
v -3 -6.437302E-06 -16.00002
v -4 -6.198883E-06 1.000013
v -3 -6.198883E-06 1.000013
v -3.000013 6 1.000025
v -3.000013 8 1.000025
v 3.000015 8 1.000025
v 3.000015 6 1.000025
v -3.000016 8 -16.00004
v 3.000014 8 -16.00003
v -3.000016 6 -16.00004
v 3.000014 6 -16.00003
v 3 3 -4.172325E-07
v 3 4.5 -4.76837E-07
v 0.9999999 3.5 -4.371007E-07
v 0.9999999 3 -4.172325E-07
v 0.9999999 3 1.000001
v 0.9999999 3.5 1.000001
v 3 4.5 1.000001
v 3 3 1.000001
v 0.9999999 6.000004 -5.364418E-07
v 0.9999999 6.000004 1
v 3 6.000004 1
v 0.9999999 2 -3.774961E-07
v 2.000001 -1.907349E-06 -2.980232E-07
v 0.9999999 2 1.000001
v 2 -1.192093E-06 1.000001
v 3 1.5 -3.576279E-07
v 0.9999999 2.5 -3.973643E-07
v 0.9999999 2.5 1.000001
v 3 1.5 1.000001
v 3 -1.192093E-06 1.000001
v -1 3 -4.172325E-07
v -1 3.5 -4.371007E-07
v -3 4.5 -4.76837E-07
v -3 3 -4.172325E-07
v -1 3.5 1.000001
v -1 3 1.000001
v -3 3 1.000001
v -3 4.5 1.000001
v -1 6.000004 -5.364418E-07
v -3 6.000004 1
v -1 6.000004 1
v -0.4 3.2 -4.251797E-07
v -0.5000001 3 -4.172325E-07
v 2.086163E-07 3 -4.172325E-07
v -0.4 3.2 1.000001
v 2.086163E-07 3 1.000001
v -0.5000001 3 1.000001
v 0.5000001 3 -4.172325E-07
v 0.4000001 3.2 -4.251797E-07
v 0.4000001 3.2 1.000001
v 0.5000001 3 1.000001
v 2.930562E-07 4 -4.569689E-07
v 2.930562E-07 4 1.000001
v -1 2 -3.774961E-07
v -2.000001 -1.907349E-06 -2.980232E-07
v -1 2 1.000001
v -2 -1.192093E-06 1.000001
v -1 2.5 -3.973643E-07
v -3 1.5 -3.576279E-07
v -3 1.5 1.000001
v -1 2.5 1.000001
v -3 -1.192093E-06 1.000001
v 3 6.000002 -16
v -3 6.000002 -16
v -3 -1.66893E-06 -16
v 3 -1.66893E-06 -16
v 0.6666667 2.666667 0
v 0.75 2.5 0
v 0.75 2.5 1
v 0.6666667 2.666667 1
v -0.6666667 2.666667 0
v -0.6666667 2.666667 1
v 0.5 2.75 1
v 0.5 2.75 0
v -0.5 2.75 0
v -0.5 2.75 1
v -3.000016 6 -15
v -1.999991 7.000012 -15
v 1.999991 7.000012 -15
v 3.000014 6 -15
v 3.000015 6 -3.541972E-07
v 1.999992 7.000011 -4.102979E-07
v -1.999992 7.000011 -6.346949E-07
v -3.000013 6 -6.907956E-07
# Vertex UVs: 103
vt -0.5 -3.558764E-07
vt -0.5 -7.500003
vt -1.5 -7.500003
vt -1.5 -3.558764E-07
vt 0.5 -3.558764E-07
vt 1.5 -3.558764E-07
vt 1.5 -7.500003
vt 0.5 -7.500003
vt -0.5 -0.4999972
vt 0.5 -0.4999972
vt 2 -0.5
vt -2 -0.5
vt -2 0
vt 2 0
vt 7.999996 -0.5
vt 7.999996 0
vt -7.999996 -0.5
vt -7.999996 0
vt -2 7.999996
vt 2 7.999996
vt -7.500003 3
vt -3.821825E-07 3
vt -2.699842E-07 -3.997017E-06
vt -7.500003 -3.155541E-06
vt -2 -8.00001
vt -2 0.5000055
vt -1.5 0.5000055
vt -1.5 -8.00001
vt 1.5 3.500005
vt 2 3.500005
vt -0.5000058 3.500005
vt 8.000011 3.500006
vt 8.00001 -3.099442E-06
vt -2 3.50001
vt -1.5 3.50001
vt 7.500002 3
vt 7.500003 -3.218651E-06
vt 2 0.5000052
vt 2 -8.000011
vt 1.5 -8.000011
vt 1.5 0.5000052
vt -8.000012 3.500006
vt 0.5000055 3.500006
vt -8.000013 -3.218651E-06
vt -1.500006 3
vt -1.500006 3.999999
vt 1.500008 3.999999
vt 1.500008 3
vt 1.500007 0.5000123
vt 1.500009 -8.000025
vt -1.500007 -8.000018
vt -1.500008 0.5000162
vt -1.5 1.5
vt -1.5 2.25
vt -0.5 1.75
vt -0.5 1.5
vt 0.5 1.5
vt 0.5 1.75
vt 1.5 2.25
vt 1.5 1.5
vt -0.5 3.000002
vt 0.5 3.000002
vt -0.5 1
vt -1 -9.536743E-07
vt 0.5 1
vt 1 -7.152557E-07
vt 2.50691E-07 1
vt -1.5 0.7499999
vt -0.5 1.25
vt 0.5 1.25
vt 1.5 0.7499999
vt 0.2 1.6
vt 0.2500001 1.5
vt -1.043081E-07 1.5
vt -0.2 1.6
vt -0.2500001 1.5
vt -1.465281E-07 2
vt -0.3333334 1.333333
vt -0.375 1.25
vt 0.375 1.25
vt 0.3333334 1.333333
vt 0.5 1.043498
vt 0.5 0.9503289
vt 0.4999999 0.6708204
vt -4.656613E-08 0.6708204
vt -4.237518E-08 0.9503289
vt -4.097819E-08 1.043498
vt -0.4999999 0.6708204
vt -0.5 1.043498
vt 0.4999999 0.3913119
vt 0.4999999 0.2981423
vt -1.092752E-07 0.2981424
vt -1.043081E-07 0.3913119
vt -0.25 1.375
vt 0.25 1.375
vt -0.4999999 0.2981423
vt -0.4999999 0.3913119
vt 1.500008 3.000013
vt 0.9999955 3.50002
vt -0.9999955 3.50002
vt -1.500007 3.000013
vt 0.9999962 3.500005
vt -0.9999962 3.500005
# Vertex Normals: 14
vn 0 1 0
vn 0 0 1
vn 1 0 0
vn -1 0 0
vn 0 0 -1
vn 0 -1 0
vn -0.8944271 -0.4472136 0
vn 0.8944272 -0.4472137 -1.544911E-08
vn -0.4472135 -0.8944272 0
vn 0.4472135 -0.8944272 0
vn 0 3.97348E-08 0.9999586
vn 0 3.973537E-08 0.9999728
vn 0 -3.973535E-08 -0.9999727
vn 0 -3.973585E-08 -0.9999854
# Faces: 79
f 4/4/1 3/3/1 2/2/1 1/1/1 
f 8/8/1 7/7/1 6/6/1 5/5/1 
f 2/2/1 8/8/1 5/5/1 1/1/1 
f 10/10/1 9/9/1 1/1/1 5/5/1 
f 14/14/2 13/13/2 12/12/2 11/11/2 
f 16/16/3 14/1/3 11/9/3 15/15/3 
f 13/5/4 18/18/4 17/17/4 12/10/4 
f 18/14/5 16/13/5 15/12/5 17/11/5 
f 11/12/6 12/11/6 17/20/6 15/19/6 
f 3/24/4 4/23/4 20/22/4 19/21/4 
f 24/28/1 23/27/1 22/26/1 21/25/1 
f 26/6/2 25/14/2 22/30/2 23/29/2 
f 25/1/3 27/33/3 21/32/3 22/31/3 
f 27/13/5 28/4/5 24/35/5 21/34/5 
f 6/23/3 7/37/3 30/36/3 29/22/3 
f 34/41/1 33/40/1 32/39/1 31/38/1 
f 36/6/5 35/14/5 32/30/5 33/29/5 
f 35/44/4 37/5/4 31/43/4 32/42/4 
f 37/13/2 38/4/2 34/35/2 31/34/2 
f 42/48/2 41/47/2 40/46/2 39/45/2 
f 41/52/1 44/51/1 43/50/1 40/49/1 
f 44/46/5 46/45/5 45/48/5 43/47/5 
f 50/56/5 49/55/5 48/54/5 47/53/5 
f 54/60/2 53/59/2 52/58/2 51/57/2 
f 49/55/5 55/61/5 20/45/5 48/54/5 
f 53/59/2 57/48/2 56/62/2 52/58/2 
f 59/64/5 1/1/5 58/63/5 
f 9/5/2 61/66/2 60/65/2 
f 9/1/4 60/63/4 58/67/4 1/23/4 
f 4/4/5 59/64/5 58/63/5 63/69/5 62/68/5 
f 61/66/2 66/6/2 65/71/2 64/70/2 60/65/2 
f 63/69/5 50/56/5 47/53/5 62/68/5 
f 65/71/2 54/60/2 51/57/2 64/70/2 
f 70/60/5 69/59/5 68/58/5 67/57/5 
f 74/54/2 73/53/2 72/56/2 71/55/2 
f 69/59/5 29/48/5 75/62/5 68/58/5 
f 77/61/2 76/45/2 74/54/2 71/55/2 
f 80/74/5 79/73/5 78/72/5 
f 83/76/2 82/74/2 81/75/2 
f 85/75/5 84/76/5 80/74/5 
f 82/74/2 87/73/2 86/72/2 
f 88/77/5 85/75/5 80/74/5 78/72/5 
f 82/74/2 86/72/2 89/77/2 81/75/2 
f 78/72/5 79/73/5 67/57/5 68/58/5 
f 71/55/2 72/56/2 83/76/2 81/75/2 
f 75/62/5 88/77/5 78/72/5 68/58/5 
f 77/61/2 71/55/2 81/75/2 89/77/2 
f 49/55/5 50/56/5 84/76/5 85/75/5 
f 51/57/2 52/58/2 86/72/2 87/73/2 
f 55/61/5 49/55/5 85/75/5 88/77/5 
f 52/58/2 56/62/2 89/77/2 86/72/2 
f 75/62/5 55/61/5 88/77/5 
f 56/62/2 77/61/2 89/77/2 
f 5/5/5 91/66/5 90/65/5 
f 93/64/2 10/1/2 92/63/2 
f 5/23/3 90/67/3 92/65/3 10/5/3 
f 91/66/5 6/6/5 95/71/5 94/70/5 90/65/5 
f 98/4/2 93/64/2 92/63/2 97/69/2 96/68/2 
f 95/71/5 70/60/5 67/57/5 94/70/5 
f 97/69/2 72/56/2 73/53/2 96/68/2 
f 7/4/2 3/6/2 19/48/2 30/45/2 
f 102/4/5 101/6/5 100/48/5 99/45/5 
f 10/10/1 9/9/1 1/1/1 5/5/1 
f 9/1/4 60/63/4 58/67/4 1/23/4 
f 5/23/3 90/67/3 92/65/3 10/5/3 
f 104/79/5 103/78/5 63/69/5 58/63/5 
f 106/81/2 105/80/2 60/65/2 64/70/2 
f 103/87/7 104/86/7 58/85/7 60/84/7 105/83/7 106/82/7 
f 90/65/5 94/70/5 107/81/5 
f 92/63/2 108/78/2 97/69/2 
f 108/89/8 92/88/8 90/85/8 107/87/8 
f 80/85/9 110/93/9 103/92/9 106/91/9 109/90/9 82/84/9 
f 110/94/5 80/74/5 50/56/5 63/69/5 
f 51/57/2 82/74/2 109/95/2 64/70/2 
f 82/88/10 112/97/10 108/96/10 107/92/10 111/93/10 80/85/10 
f 94/70/5 67/57/5 80/74/5 111/95/5 
f 97/69/2 112/94/2 82/74/2 72/56/2 
f 116/101/12 115/100/12 114/99/12 113/98/11 
f 120/45/14 119/103/14 118/102/14 117/48/13 


g Mesh2
# Vertex Positions: 12
v 3.000014 7.000012 -15
v 3.000015 7.000011 -3.541972E-07
v 3.000015 8 -3.541972E-07
v 3.000014 8 -15
v -3.000013 7.000011 -6.907956E-07
v -3.000016 7.000012 -15
v -3.000016 8 -15
v -3.000013 8 -6.907956E-07
v 3.000014 7.000012 -16.00003
v -3.000016 7.000012 -16.00004
v 3.000015 7.000011 1.000025
v -3.000013 7.000011 1.000025
# Vertex UVs: 10
vt -7.499998 3.500008
vt -2.331904E-07 3.500005
vt -2.892888E-07 4
vt -7.499998 4.000002
vt -7.500007 3.500011
vt -7.500011 4.000009
vt -8.000011 4.000002
vt -8.000025 3.500011
vt -8.000029 4.000009
vt 0.5000122 4
# Vertex Normals: 0
# Faces: 6
f 124/107/3 123/106/3 122/105/3 121/104/3 
f 128/106/4 127/109/4 126/108/4 125/105/4 
f 129/42/3 44/110/3 124/107/3 121/104/3 
f 127/109/4 43/112/4 130/111/4 126/108/4 
f 123/106/3 41/113/3 131/43/3 122/105/3 
f 132/43/4 40/113/4 128/106/4 125/105/4 


g Mesh3
# Vertex Positions: 0
# Vertex UVs: 8
vt -0.9999955 -7.500003
vt 0.9999955 -7.500003
vt 7.500001 1.060659
vt 7.500001 1.767778
vt 7.103898E-08 1.767778
vt -2.406808E-08 1.06066
vt -7.500001 1.767778
vt -7.500001 1.060658
# Vertex Normals: 2
vn -0.7071075 -0.7071056 1.050588E-08
vn 0.7071076 -0.7071057 1.080844E-08
# Faces: 3
f 118/64/6 119/66/6 114/115/6 115/114/6 
f 117/119/15 118/118/15 115/117/15 116/116/15 
f 113/121/16 114/120/16 119/118/16 120/119/16 


