# MagicaVoxel @ Ephtracy

# group
g PlayerSword

# material
mtllib PlayerSword.mtl
usemtl palette

# normals
vn -1 0 0
vn 1 0 0
vn 0 0 1
vn 0 0 -1
vn 0 -1 0
vn 0 1 0

# texcoords
vt 0.970703 0.5
vt 0.974609 0.5
vt 0.982422 0.5

# verts
v -8 0 0.5
v -8 0 -0.5
v -8 2 0.5
v -8 2 -0.5
v -7 2 0.5
v -7 2 -0.5
v -7 3 0.5
v -7 3 -0.5
v -7 6 0.5
v -7 6 -0.5
v -6 6 0.5
v -6 6 -0.5
v -6 7 0.5
v -6 7 -0.5
v -4 5 0.5
v -4 5 -0.5
v -4 6 0.5
v -4 6 -0.5
v -3 6 0.5
v -3 6 -0.5
v -3 7 0.5
v -3 7 -0.5
v -2 7 0.5
v -2 7 -0.5
v -2 8 0.5
v -2 8 -0.5
v -1 8 0.5
v -1 8 -0.5
v -1 9 0.5
v -1 9 -0.5
v 0 9 0.5
v 0 9 -0.5
v 0 10 0.5
v 0 10 -0.5
v 1 10 0.5
v 1 10 -0.5
v 1 11 0.5
v 1 11 -0.5
v 2 11 0.5
v 2 11 -0.5
v 2 12 0.5
v 2 12 -0.5
v 3 12 0.5
v 3 12 -0.5
v 3 13 0.5
v 3 13 -0.5
v 4 13 0.5
v 4 13 -0.5
v 4 14 0.5
v 4 14 -0.5
v 5 14 0.5
v 5 14 -0.5
v 5 15 0.5
v 5 15 -0.5
v 6 15 0.5
v 6 15 -0.5
v 6 16 0.5
v 6 16 -0.5
v -6 0 0.5
v -6 0 -0.5
v -6 1 0.5
v -6 1 -0.5
v -5 5 0.5
v -5 5 -0.5
v -5 7 0.5
v -5 7 -0.5
v -3 3 0.5
v -3 3 -0.5
v -3 4 0.5
v -3 4 -0.5
v -2 1 0.5
v -2 1 -0.5
v -2 2 0.5
v -2 2 -0.5
v -2 4 0.5
v -2 4 -0.5
v -2 5 0.5
v -2 5 -0.5
v -1 2 0.5
v -1 2 -0.5
v -1 3 0.5
v -1 3 -0.5
v -1 5 0.5
v -1 5 -0.5
v -1 6 0.5
v -1 6 -0.5
v 0 6 0.5
v 0 6 -0.5
v 0 7 0.5
v 0 7 -0.5
v 1 7 0.5
v 1 7 -0.5
v 1 8 0.5
v 1 8 -0.5
v 2 8 0.5
v 2 8 -0.5
v 2 9 0.5
v 2 9 -0.5
v 3 9 0.5
v 3 9 -0.5
v 3 10 0.5
v 3 10 -0.5
v 4 10 0.5
v 4 10 -0.5
v 4 11 0.5
v 4 11 -0.5
v 5 11 0.5
v 5 11 -0.5
v 5 12 0.5
v 5 12 -0.5
v 6 12 0.5
v 6 12 -0.5
v 6 13 0.5
v 6 13 -0.5
v 7 13 0.5
v 7 13 -0.5
v 7 14 0.5
v 7 14 -0.5
v 8 14 0.5
v 8 14 -0.5
v 8 16 0.5
v 8 16 -0.5
v -8 0 0.5
v -8 2 0.5
v -7 2 0.5
v -7 3 0.5
v -7 6 0.5
v -6 0 0.5
v -6 1 0.5
v -6 2 0.5
v -6 3 0.5
v -6 6 0.5
v -6 7 0.5
v -5 1 0.5
v -5 2 0.5
v -5 3 0.5
v -5 4 0.5
v -5 5 0.5
v -5 7 0.5
v -4 3 0.5
v -4 4 0.5
v -4 5 0.5
v -4 6 0.5
v -3 3 0.5
v -3 4 0.5
v -3 5 0.5
v -3 6 0.5
v -3 7 0.5
v -2 1 0.5
v -2 2 0.5
v -2 4 0.5
v -2 5 0.5
v -2 6 0.5
v -2 7 0.5
v -2 8 0.5
v -1 2 0.5
v -1 3 0.5
v -1 5 0.5
v -1 6 0.5
v -1 7 0.5
v -1 8 0.5
v -1 9 0.5
v 0 6 0.5
v 0 7 0.5
v 0 8 0.5
v 0 9 0.5
v 0 10 0.5
v 1 7 0.5
v 1 8 0.5
v 1 9 0.5
v 1 10 0.5
v 1 11 0.5
v 2 8 0.5
v 2 9 0.5
v 2 10 0.5
v 2 11 0.5
v 2 12 0.5
v 3 9 0.5
v 3 10 0.5
v 3 11 0.5
v 3 12 0.5
v 3 13 0.5
v 4 10 0.5
v 4 11 0.5
v 4 12 0.5
v 4 13 0.5
v 4 14 0.5
v 5 11 0.5
v 5 12 0.5
v 5 13 0.5
v 5 14 0.5
v 5 15 0.5
v 6 12 0.5
v 6 13 0.5
v 6 14 0.5
v 6 15 0.5
v 6 16 0.5
v 7 13 0.5
v 7 14 0.5
v 7 15 0.5
v 8 14 0.5
v 8 16 0.5
v -8 0 -0.5
v -8 2 -0.5
v -7 2 -0.5
v -7 3 -0.5
v -7 6 -0.5
v -6 0 -0.5
v -6 1 -0.5
v -6 2 -0.5
v -6 3 -0.5
v -6 6 -0.5
v -6 7 -0.5
v -5 1 -0.5
v -5 2 -0.5
v -5 3 -0.5
v -5 4 -0.5
v -5 5 -0.5
v -5 7 -0.5
v -4 3 -0.5
v -4 4 -0.5
v -4 5 -0.5
v -4 6 -0.5
v -3 3 -0.5
v -3 4 -0.5
v -3 5 -0.5
v -3 6 -0.5
v -3 7 -0.5
v -2 1 -0.5
v -2 2 -0.5
v -2 4 -0.5
v -2 5 -0.5
v -2 6 -0.5
v -2 7 -0.5
v -2 8 -0.5
v -1 2 -0.5
v -1 3 -0.5
v -1 5 -0.5
v -1 6 -0.5
v -1 7 -0.5
v -1 8 -0.5
v -1 9 -0.5
v 0 6 -0.5
v 0 7 -0.5
v 0 8 -0.5
v 0 9 -0.5
v 0 10 -0.5
v 1 7 -0.5
v 1 8 -0.5
v 1 9 -0.5
v 1 10 -0.5
v 1 11 -0.5
v 2 8 -0.5
v 2 9 -0.5
v 2 10 -0.5
v 2 11 -0.5
v 2 12 -0.5
v 3 9 -0.5
v 3 10 -0.5
v 3 11 -0.5
v 3 12 -0.5
v 3 13 -0.5
v 4 10 -0.5
v 4 11 -0.5
v 4 12 -0.5
v 4 13 -0.5
v 4 14 -0.5
v 5 11 -0.5
v 5 12 -0.5
v 5 13 -0.5
v 5 14 -0.5
v 5 15 -0.5
v 6 12 -0.5
v 6 13 -0.5
v 6 14 -0.5
v 6 15 -0.5
v 6 16 -0.5
v 7 13 -0.5
v 7 14 -0.5
v 7 15 -0.5
v 8 14 -0.5
v 8 16 -0.5
v -8 0 0.5
v -6 0 0.5
v -8 0 -0.5
v -6 0 -0.5
v -6 1 0.5
v -5 1 0.5
v -2 1 0.5
v -6 1 -0.5
v -5 1 -0.5
v -2 1 -0.5
v -2 2 0.5
v -1 2 0.5
v -2 2 -0.5
v -1 2 -0.5
v -3 4 0.5
v -2 4 0.5
v -3 4 -0.5
v -2 4 -0.5
v -2 5 0.5
v -1 5 0.5
v -2 5 -0.5
v -1 5 -0.5
v -1 6 0.5
v 0 6 0.5
v -1 6 -0.5
v 0 6 -0.5
v 0 7 0.5
v 1 7 0.5
v 0 7 -0.5
v 1 7 -0.5
v 1 8 0.5
v 2 8 0.5
v 1 8 -0.5
v 2 8 -0.5
v 2 9 0.5
v 3 9 0.5
v 2 9 -0.5
v 3 9 -0.5
v 3 10 0.5
v 4 10 0.5
v 3 10 -0.5
v 4 10 -0.5
v 4 11 0.5
v 5 11 0.5
v 4 11 -0.5
v 5 11 -0.5
v 5 12 0.5
v 6 12 0.5
v 5 12 -0.5
v 6 12 -0.5
v 6 13 0.5
v 7 13 0.5
v 6 13 -0.5
v 7 13 -0.5
v 7 14 0.5
v 8 14 0.5
v 7 14 -0.5
v 8 14 -0.5
v -8 2 0.5
v -7 2 0.5
v -8 2 -0.5
v -7 2 -0.5
v -3 3 0.5
v -1 3 0.5
v -3 3 -0.5
v -1 3 -0.5
v -5 5 0.5
v -4 5 0.5
v -5 5 -0.5
v -4 5 -0.5
v -7 6 0.5
v -6 6 0.5
v -4 6 0.5
v -3 6 0.5
v -7 6 -0.5
v -6 6 -0.5
v -4 6 -0.5
v -3 6 -0.5
v -6 7 0.5
v -5 7 0.5
v -3 7 0.5
v -2 7 0.5
v -6 7 -0.5
v -5 7 -0.5
v -3 7 -0.5
v -2 7 -0.5
v -2 8 0.5
v -1 8 0.5
v -2 8 -0.5
v -1 8 -0.5
v -1 9 0.5
v 0 9 0.5
v -1 9 -0.5
v 0 9 -0.5
v 0 10 0.5
v 1 10 0.5
v 0 10 -0.5
v 1 10 -0.5
v 1 11 0.5
v 2 11 0.5
v 1 11 -0.5
v 2 11 -0.5
v 2 12 0.5
v 3 12 0.5
v 2 12 -0.5
v 3 12 -0.5
v 3 13 0.5
v 4 13 0.5
v 3 13 -0.5
v 4 13 -0.5
v 4 14 0.5
v 5 14 0.5
v 4 14 -0.5
v 5 14 -0.5
v 5 15 0.5
v 6 15 0.5
v 5 15 -0.5
v 6 15 -0.5
v 6 16 0.5
v 8 16 0.5
v 6 16 -0.5
v 8 16 -0.5

# faces
f 3/2/1 2/2/1 1/2/1
f 4/2/1 2/2/1 3/2/1
f 7/2/1 6/2/1 5/2/1
f 8/2/1 6/2/1 7/2/1
f 9/1/1 8/1/1 7/1/1
f 10/1/1 8/1/1 9/1/1
f 13/1/1 12/1/1 11/1/1
f 14/1/1 12/1/1 13/1/1
f 17/2/1 16/2/1 15/2/1
f 18/2/1 16/2/1 17/2/1
f 21/2/1 20/2/1 19/2/1
f 22/2/1 20/2/1 21/2/1
f 25/2/1 24/2/1 23/2/1
f 26/2/1 24/2/1 25/2/1
f 29/2/1 28/2/1 27/2/1
f 30/2/1 28/2/1 29/2/1
f 33/2/1 32/2/1 31/2/1
f 34/2/1 32/2/1 33/2/1
f 37/2/1 36/2/1 35/2/1
f 38/2/1 36/2/1 37/2/1
f 41/2/1 40/2/1 39/2/1
f 42/2/1 40/2/1 41/2/1
f 45/2/1 44/2/1 43/2/1
f 46/2/1 44/2/1 45/2/1
f 49/2/1 48/2/1 47/2/1
f 50/2/1 48/2/1 49/2/1
f 53/2/1 52/2/1 51/2/1
f 54/2/1 52/2/1 53/2/1
f 57/2/1 56/2/1 55/2/1
f 58/2/1 56/2/1 57/2/1
f 59/2/2 60/2/2 61/2/2
f 61/2/2 60/2/2 62/2/2
f 63/1/2 64/1/2 65/1/2
f 65/1/2 64/1/2 66/1/2
f 67/1/2 68/1/2 69/1/2
f 69/1/2 68/1/2 70/1/2
f 71/1/2 72/1/2 73/1/2
f 73/1/2 72/1/2 74/1/2
f 75/2/2 76/2/2 77/2/2
f 77/2/2 76/2/2 78/2/2
f 79/1/2 80/1/2 81/1/2
f 81/1/2 80/1/2 82/1/2
f 83/2/2 84/2/2 85/2/2
f 85/2/2 84/2/2 86/2/2
f 87/2/2 88/2/2 89/2/2
f 89/2/2 88/2/2 90/2/2
f 91/2/2 92/2/2 93/2/2
f 93/2/2 92/2/2 94/2/2
f 95/2/2 96/2/2 97/2/2
f 97/2/2 96/2/2 98/2/2
f 99/2/2 100/2/2 101/2/2
f 101/2/2 100/2/2 102/2/2
f 103/2/2 104/2/2 105/2/2
f 105/2/2 104/2/2 106/2/2
f 107/2/2 108/2/2 109/2/2
f 109/2/2 108/2/2 110/2/2
f 111/2/2 112/2/2 113/2/2
f 113/2/2 112/2/2 114/2/2
f 115/2/2 116/2/2 117/2/2
f 117/2/2 116/2/2 118/2/2
f 119/2/2 120/2/2 121/2/2
f 121/2/2 120/2/2 122/2/2
f 125/2/3 124/2/3 123/2/3
f 128/2/3 125/2/3 123/2/3
f 128/2/3 126/2/3 125/2/3
f 129/2/3 126/2/3 128/2/3
f 130/2/3 126/2/3 129/2/3
f 131/1/3 127/1/3 126/1/3
f 131/2/3 126/2/3 130/2/3
f 132/1/3 127/1/3 131/1/3
f 134/2/3 130/2/3 129/2/3
f 135/1/3 133/1/3 132/1/3
f 135/2/3 130/2/3 134/2/3
f 135/1/3 132/1/3 131/1/3
f 135/1/3 131/1/3 130/1/3
f 136/1/3 133/1/3 135/1/3
f 137/1/3 133/1/3 136/1/3
f 138/1/3 133/1/3 137/1/3
f 139/1/3 133/1/3 138/1/3
f 140/1/3 135/1/3 134/1/3
f 140/1/3 136/1/3 135/1/3
f 140/3/3 137/3/3 136/3/3
f 141/1/3 138/1/3 137/1/3
f 141/3/3 137/3/3 140/3/3
f 142/1/3 138/1/3 141/1/3
f 144/1/3 140/1/3 134/1/3
f 144/1/3 141/1/3 140/1/3
f 145/2/3 143/2/3 142/2/3
f 145/1/3 141/1/3 144/1/3
f 145/2/3 142/2/3 141/2/3
f 146/2/3 143/2/3 145/2/3
f 147/2/3 143/2/3 146/2/3
f 149/1/3 144/1/3 134/1/3
f 150/1/3 144/1/3 149/1/3
f 151/2/3 146/2/3 145/2/3
f 152/3/3 147/3/3 146/3/3
f 152/2/3 146/2/3 151/2/3
f 153/2/3 148/2/3 147/2/3
f 153/3/3 147/3/3 152/3/3
f 154/2/3 148/2/3 153/2/3
f 156/1/3 144/1/3 150/1/3
f 157/1/3 144/1/3 156/1/3
f 158/2/3 153/2/3 152/2/3
f 159/3/3 154/3/3 153/3/3
f 159/2/3 153/2/3 158/2/3
f 160/2/3 155/2/3 154/2/3
f 160/3/3 154/3/3 159/3/3
f 161/2/3 155/2/3 160/2/3
f 163/2/3 160/2/3 159/2/3
f 164/3/3 161/3/3 160/3/3
f 164/2/3 160/2/3 163/2/3
f 165/2/3 162/2/3 161/2/3
f 165/3/3 161/3/3 164/3/3
f 166/2/3 162/2/3 165/2/3
f 168/2/3 165/2/3 164/2/3
f 169/3/3 166/3/3 165/3/3
f 169/2/3 165/2/3 168/2/3
f 170/2/3 167/2/3 166/2/3
f 170/3/3 166/3/3 169/3/3
f 171/2/3 167/2/3 170/2/3
f 173/2/3 170/2/3 169/2/3
f 174/3/3 171/3/3 170/3/3
f 174/2/3 170/2/3 173/2/3
f 175/2/3 172/2/3 171/2/3
f 175/3/3 171/3/3 174/3/3
f 176/2/3 172/2/3 175/2/3
f 178/2/3 175/2/3 174/2/3
f 179/3/3 176/3/3 175/3/3
f 179/2/3 175/2/3 178/2/3
f 180/2/3 177/2/3 176/2/3
f 180/3/3 176/3/3 179/3/3
f 181/2/3 177/2/3 180/2/3
f 183/2/3 180/2/3 179/2/3
f 184/3/3 181/3/3 180/3/3
f 184/2/3 180/2/3 183/2/3
f 185/2/3 182/2/3 181/2/3
f 185/3/3 181/3/3 184/3/3
f 186/2/3 182/2/3 185/2/3
f 188/2/3 185/2/3 184/2/3
f 189/3/3 186/3/3 185/3/3
f 189/2/3 185/2/3 188/2/3
f 190/2/3 187/2/3 186/2/3
f 190/3/3 186/3/3 189/3/3
f 191/2/3 187/2/3 190/2/3
f 193/2/3 190/2/3 189/2/3
f 194/3/3 191/3/3 190/3/3
f 194/2/3 190/2/3 193/2/3
f 195/2/3 192/2/3 191/2/3
f 195/3/3 191/3/3 194/3/3
f 196/2/3 192/2/3 195/2/3
f 198/2/3 195/2/3 194/2/3
f 199/3/3 196/3/3 195/3/3
f 199/2/3 195/2/3 198/2/3
f 200/2/3 197/2/3 196/2/3
f 200/3/3 196/3/3 199/3/3
f 201/2/3 200/2/3 199/2/3
f 202/2/3 197/2/3 200/2/3
f 202/2/3 200/2/3 201/2/3
f 203/2/4 204/2/4 205/2/4
f 203/2/4 205/2/4 208/2/4
f 205/2/4 206/2/4 208/2/4
f 208/2/4 206/2/4 209/2/4
f 209/2/4 206/2/4 210/2/4
f 206/1/4 207/1/4 211/1/4
f 210/2/4 206/2/4 211/2/4
f 211/1/4 207/1/4 212/1/4
f 209/2/4 210/2/4 214/2/4
f 212/1/4 213/1/4 215/1/4
f 214/2/4 210/2/4 215/2/4
f 211/1/4 212/1/4 215/1/4
f 210/1/4 211/1/4 215/1/4
f 215/1/4 213/1/4 216/1/4
f 216/1/4 213/1/4 217/1/4
f 217/1/4 213/1/4 218/1/4
f 218/1/4 213/1/4 219/1/4
f 214/1/4 215/1/4 220/1/4
f 215/1/4 216/1/4 220/1/4
f 216/3/4 217/3/4 220/3/4
f 217/1/4 218/1/4 221/1/4
f 220/3/4 217/3/4 221/3/4
f 221/1/4 218/1/4 222/1/4
f 214/1/4 220/1/4 224/1/4
f 220/1/4 221/1/4 224/1/4
f 222/2/4 223/2/4 225/2/4
f 224/1/4 221/1/4 225/1/4
f 221/2/4 222/2/4 225/2/4
f 225/2/4 223/2/4 226/2/4
f 226/2/4 223/2/4 227/2/4
f 214/1/4 224/1/4 229/1/4
f 229/1/4 224/1/4 230/1/4
f 225/2/4 226/2/4 231/2/4
f 226/3/4 227/3/4 232/3/4
f 231/2/4 226/2/4 232/2/4
f 227/2/4 228/2/4 233/2/4
f 232/3/4 227/3/4 233/3/4
f 233/2/4 228/2/4 234/2/4
f 230/1/4 224/1/4 236/1/4
f 236/1/4 224/1/4 237/1/4
f 232/2/4 233/2/4 238/2/4
f 233/3/4 234/3/4 239/3/4
f 238/2/4 233/2/4 239/2/4
f 234/2/4 235/2/4 240/2/4
f 239/3/4 234/3/4 240/3/4
f 240/2/4 235/2/4 241/2/4
f 239/2/4 240/2/4 243/2/4
f 240/3/4 241/3/4 244/3/4
f 243/2/4 240/2/4 244/2/4
f 241/2/4 242/2/4 245/2/4
f 244/3/4 241/3/4 245/3/4
f 245/2/4 242/2/4 246/2/4
f 244/2/4 245/2/4 248/2/4
f 245/3/4 246/3/4 249/3/4
f 248/2/4 245/2/4 249/2/4
f 246/2/4 247/2/4 250/2/4
f 249/3/4 246/3/4 250/3/4
f 250/2/4 247/2/4 251/2/4
f 249/2/4 250/2/4 253/2/4
f 250/3/4 251/3/4 254/3/4
f 253/2/4 250/2/4 254/2/4
f 251/2/4 252/2/4 255/2/4
f 254/3/4 251/3/4 255/3/4
f 255/2/4 252/2/4 256/2/4
f 254/2/4 255/2/4 258/2/4
f 255/3/4 256/3/4 259/3/4
f 258/2/4 255/2/4 259/2/4
f 256/2/4 257/2/4 260/2/4
f 259/3/4 256/3/4 260/3/4
f 260/2/4 257/2/4 261/2/4
f 259/2/4 260/2/4 263/2/4
f 260/3/4 261/3/4 264/3/4
f 263/2/4 260/2/4 264/2/4
f 261/2/4 262/2/4 265/2/4
f 264/3/4 261/3/4 265/3/4
f 265/2/4 262/2/4 266/2/4
f 264/2/4 265/2/4 268/2/4
f 265/3/4 266/3/4 269/3/4
f 268/2/4 265/2/4 269/2/4
f 266/2/4 267/2/4 270/2/4
f 269/3/4 266/3/4 270/3/4
f 270/2/4 267/2/4 271/2/4
f 269/2/4 270/2/4 273/2/4
f 270/3/4 271/3/4 274/3/4
f 273/2/4 270/2/4 274/2/4
f 271/2/4 272/2/4 275/2/4
f 274/3/4 271/3/4 275/3/4
f 275/2/4 272/2/4 276/2/4
f 274/2/4 275/2/4 278/2/4
f 275/3/4 276/3/4 279/3/4
f 278/2/4 275/2/4 279/2/4
f 276/2/4 277/2/4 280/2/4
f 279/3/4 276/3/4 280/3/4
f 279/2/4 280/2/4 281/2/4
f 280/2/4 277/2/4 282/2/4
f 281/2/4 280/2/4 282/2/4
f 285/2/5 284/2/5 283/2/5
f 286/2/5 284/2/5 285/2/5
f 290/2/5 288/2/5 287/2/5
f 291/1/5 289/1/5 288/1/5
f 291/2/5 288/2/5 290/2/5
f 292/1/5 289/1/5 291/1/5
f 295/1/5 294/1/5 293/1/5
f 296/1/5 294/1/5 295/1/5
f 299/2/5 298/2/5 297/2/5
f 300/2/5 298/2/5 299/2/5
f 303/2/5 302/2/5 301/2/5
f 304/2/5 302/2/5 303/2/5
f 307/2/5 306/2/5 305/2/5
f 308/2/5 306/2/5 307/2/5
f 311/2/5 310/2/5 309/2/5
f 312/2/5 310/2/5 311/2/5
f 315/2/5 314/2/5 313/2/5
f 316/2/5 314/2/5 315/2/5
f 319/2/5 318/2/5 317/2/5
f 320/2/5 318/2/5 319/2/5
f 323/2/5 322/2/5 321/2/5
f 324/2/5 322/2/5 323/2/5
f 327/2/5 326/2/5 325/2/5
f 328/2/5 326/2/5 327/2/5
f 331/2/5 330/2/5 329/2/5
f 332/2/5 330/2/5 331/2/5
f 335/2/5 334/2/5 333/2/5
f 336/2/5 334/2/5 335/2/5
f 339/2/5 338/2/5 337/2/5
f 340/2/5 338/2/5 339/2/5
f 341/2/6 342/2/6 343/2/6
f 343/2/6 342/2/6 344/2/6
f 345/1/6 346/1/6 347/1/6
f 347/1/6 346/1/6 348/1/6
f 349/1/6 350/1/6 351/1/6
f 351/1/6 350/1/6 352/1/6
f 353/1/6 354/1/6 357/1/6
f 357/1/6 354/1/6 358/1/6
f 355/2/6 356/2/6 359/2/6
f 359/2/6 356/2/6 360/2/6
f 361/1/6 362/1/6 365/1/6
f 365/1/6 362/1/6 366/1/6
f 363/2/6 364/2/6 367/2/6
f 367/2/6 364/2/6 368/2/6
f 369/2/6 370/2/6 371/2/6
f 371/2/6 370/2/6 372/2/6
f 373/2/6 374/2/6 375/2/6
f 375/2/6 374/2/6 376/2/6
f 377/2/6 378/2/6 379/2/6
f 379/2/6 378/2/6 380/2/6
f 381/2/6 382/2/6 383/2/6
f 383/2/6 382/2/6 384/2/6
f 385/2/6 386/2/6 387/2/6
f 387/2/6 386/2/6 388/2/6
f 389/2/6 390/2/6 391/2/6
f 391/2/6 390/2/6 392/2/6
f 393/2/6 394/2/6 395/2/6
f 395/2/6 394/2/6 396/2/6
f 397/2/6 398/2/6 399/2/6
f 399/2/6 398/2/6 400/2/6
f 401/2/6 402/2/6 403/2/6
f 403/2/6 402/2/6 404/2/6
