g Mesh1
# Vertex Positions: 56
v 4 0 -1.499999
v 4 0 1.499999
v -1 0 1.499999
v -1 0 -1.499999
v 4 -1 2.5
v -1 -1 2.5
v -1 0 2.5
v 4 0 2.5
v 4 -1 -2.5
v 4 0 -2.5
v -1 -1 -2.5
v -1 0 -2.5
v 3 2 -1.499999
v 3 4 -1.499999
v 4 4 -1.499999
v 4 2 -1.499999
v 3 1.5 -1.499999
v 4 1.5 -1.499999
v 3 -1.192093E-06 -1.499999
v 0 4 -1.499999
v 0 2 -1.499999
v -1 2 -1.499999
v -1 4 -1.499999
v -1 1.5 -1.499999
v 0 1.5 -1.499999
v 0 -1.192093E-06 -1.499999
v 4 5.000011 -2.500002
v 4 5.000008 -1.499999
v -1 5.000008 -1.499999
v -1 5.000011 -2.500002
v 4 2 1.499999
v 4 4 1.499999
v 3 4 1.499999
v 3 2 1.499999
v 4 1.5 1.499999
v 3 1.5 1.499999
v 3 -3.099442E-06 1.499999
v 0 2 1.499999
v 0 4 1.499999
v -1 4 1.499999
v -1 2 1.499999
v 0 1.5 1.499999
v -1 1.5 1.499999
v 0 -3.099442E-06 1.499999
v -1 5.000006 2.500001
v -1 5.000008 1.499999
v 4 5.000008 1.499999
v 4 5.000006 2.500001
v 3 1.5 -2
v 3 2 -2
v 0 2 -2
v 0 1.5 -2
v 3 2 2
v 3 1.5 2
v 0 2 2
v 0 1.5 2
# Vertex UVs: 70
vt -2 -0.7499993
vt -2 0.7499994
vt 0.5 0.7499994
vt 0.5 -0.7499993
vt 2 -0.5
vt -0.5 -0.5
vt -0.5 0
vt 2 0
vt 1.25 -0.5
vt -1.25 -0.5
vt -1.25 0
vt 1.25 0
vt 0.5 -0.5
vt -2 -0.5
vt -2 0
vt 0.5 0
vt -2 1.25
vt 0.5 1.25
vt 0.5 -1.25
vt -2 -1.25
vt 1.5 1
vt 1.5 2
vt 2 2
vt 2 1
vt 1.5 0.7500001
vt 2 0.7500001
vt 1.5 -5.066396E-07
vt 0 2
vt 0 1
vt -0.5 1
vt -0.5 2
vt -0.5 0.7500001
vt 0 0.7500001
vt 0 -5.066396E-07
vt -2 -1.250011
vt -2 -0.7500101
vt 0.5 -0.7500101
vt 0.5 -1.250011
vt -1.250001 2.500006
vt -0.7499998 2.500004
vt -0.7499994 -5.960464E-07
vt 0.75 2.500004
vt 1.250001 2.500006
vt 0.7499996 -5.960464E-07
vt -2 2.500006
vt 0.5 2.500006
vt -2 0.9999999
vt -2 2
vt -1.5 2
vt -1.5 0.9999999
vt -1.5 0.75
vt -1.5 -1.549721E-06
vt 0.5 2
vt 0.5 0.9999999
vt -0.5 2.500003
vt 2 2.500003
vt 1 0.75
vt 1 1
vt 0.7499997 1
vt 0.7499996 0.75
vt 0 -1
vt 0 -0.7499996
vt -1.5 -0.7499996
vt -1.5 -1
vt -0.7499995 0.75
vt -0.7499995 1
vt -1 1
vt -1 0.75
vt -0.7499999 2
vt 0.7500004 2
# Vertex Normals: 6
vn 0 1 0
vn 0 0 1
vn 1 0 0
vn -1 0 0
vn 0 0 -1
vn 0 -1 0
# Faces: 42
f 4/4/1 3/3/1 2/2/1 1/1/1 
f 8/8/2 7/7/2 6/6/2 5/5/2 
f 10/12/3 8/11/3 5/10/3 9/9/3 
f 7/12/4 12/11/4 11/10/4 6/9/4 
f 12/16/5 10/15/5 9/14/5 11/13/5 
f 5/20/6 6/19/6 11/18/6 9/17/6 
f 16/24/2 15/23/2 14/22/2 13/21/2 
f 19/27/2 1/8/2 18/26/2 17/25/2 
f 18/26/2 16/24/2 13/21/2 17/25/2 
f 23/31/2 22/30/2 21/29/2 20/28/2 
f 13/21/2 14/22/2 20/28/2 21/29/2 
f 4/7/2 26/34/2 25/33/2 24/32/2 
f 25/33/2 21/29/2 22/30/2 24/32/2 
f 26/34/2 19/27/2 17/25/2 25/33/2 
f 30/38/1 29/37/1 28/36/1 27/35/1 
f 12/11/4 4/41/4 29/40/4 30/39/4 
f 1/44/3 10/12/3 27/43/3 28/42/3 
f 10/15/5 12/16/5 30/46/5 27/45/5 
f 34/50/5 33/49/5 32/48/5 31/47/5 
f 2/15/5 37/52/5 36/51/5 35/2/5 
f 36/51/5 34/50/5 31/47/5 35/2/5 
f 41/54/5 40/53/5 39/28/5 38/29/5 
f 33/49/5 34/50/5 38/29/5 39/28/5 
f 44/34/5 3/16/5 43/3/5 42/33/5 
f 43/3/5 41/54/5 38/29/5 42/33/5 
f 37/52/5 44/34/5 42/33/5 36/51/5 
f 48/17/1 47/2/1 46/3/1 45/18/1 
f 8/11/3 2/41/3 47/40/3 48/39/3 
f 3/44/4 7/12/4 45/43/4 46/42/4 
f 7/7/2 8/8/2 48/56/2 45/55/2 
f 17/60/4 13/59/4 50/58/4 49/57/4 
f 50/64/6 13/63/6 21/62/6 51/61/6 
f 52/68/3 51/67/3 21/66/3 25/65/3 
f 17/51/1 49/50/1 52/29/1 25/33/1 
f 54/68/4 53/67/4 34/66/4 36/65/4 
f 34/51/6 53/50/6 55/29/6 38/33/6 
f 42/60/3 38/59/3 55/58/3 56/57/3 
f 54/64/1 36/63/1 42/62/1 56/61/1 
f 15/70/3 28/42/3 47/40/3 32/69/3 
f 28/36/1 29/37/1 46/3/1 47/2/1 
f 29/40/4 23/69/4 40/70/4 46/42/4 
f 23/3/6 15/2/6 32/36/6 40/37/6 


g Mesh2
# Vertex Positions: 0
# Vertex UVs: 0
# Vertex Normals: 0
# Faces: 2
f 49/51/2 50/50/2 51/29/2 52/33/2 
f 55/29/5 53/21/5 54/25/5 56/33/5 


