g Mesh1
# Vertex Positions: 67
v 3 0 -1.5
v 3 0 -3.248454E-06
v -1 0 -3.248454E-06
v -1 0 -1.5
v 4 0 -1.5
v 4 0 -3.248454E-06
v 3 0 1.5
v -1 0 1.5
v 4 -1 2.5
v -1 -1 2.5
v -1 0 2.5
v 4 0 2.5
v 4 -1 -2.5
v 4 0 -2.5
v -1 -1 -2.5
v -1 0 -2.5
v -1 4 -1.5
v 4 4 -1.5
v 4 5.000002 -2.5
v 4 5.000002 -1.5
v -1 5.000002 -1.5
v -1 5.000002 -2.5
v 3 4 1.5
v -1 4 1.5
v -1 5.000001 2.5
v -1 5.000001 1.5
v 4 5.000001 1.5
v 4 5.000001 2.5
v 4 4.768372E-07 1.5
v 2 4 -0.5000002
v 3 4 -0.5000002
v 3 4 -1.5
v 2 4 -1.5
v 2 4 -3.039837E-06
v 3 4 -3.039837E-06
v 1 4 -0.5000002
v 1 4 -1.5
v -1 4 -0.5000002
v 1 4 -3.039837E-06
v -1 4 -3.039837E-06
v 4 4 -0.5000002
v 4 4 -3.039837E-06
v 3 4 0.5000001
v 2 4 0.5000001
v 2 4 1.5
v 1 4 0.5000001
v -1 4 0.5000001
v 1 4 1.5
v 4 4 1.5
v 3 0.4999999 1.125
v 3 1.000006 1.500004
v 3 -6.755191E-06 1.250002
v 3 -6.198877E-06 0.7499953
v 3 1.000004 -3.173947E-06
v 3 0.4999952 0.3749988
v 3 -5.642574E-06 0.2499986
v 3 3.5 0.3749999
v 3 4.000004 0.2499992
v 3 4.000005 0.7500036
v 3 3.500008 1.125002
v 3 4.000006 1.250002
v 3 3.000006 1.500004
v 3 3.000005 -3.08454E-06
v 3 2.000002 0.7499985
v 3 1.999998 1.25
v 3 2.500002 1.125
v 3 1.500004 1.125001
# Vertex UVs: 74
vt -1.5 -0.7500002
vt -1.5 -1.594425E-06
vt 0.5 -1.594425E-06
vt 0.5 -0.7500002
vt -2 -0.7500002
vt -2 -1.594425E-06
vt -1.5 0.7500002
vt 0.5 0.7500002
vt 2 -0.5
vt -0.5 -0.5
vt -0.5 0
vt 2 0
vt 1.25 -0.5
vt -1.25 -0.5
vt -1.25 0
vt 1.25 0
vt 0.5 -0.5
vt -2 -0.5
vt -2 1.25
vt 0.5 1.25
vt 0.5 -1.25
vt -2 -1.25
vt -0.5 2
vt 2 2
vt -1.25 2.500001
vt -0.7499999 2.500001
vt -0.7500003 -1.192093E-07
vt 0.7500001 2.500001
vt 1.25 2.500001
vt 0.7500005 -1.192093E-07
vt -2 2.500001
vt 0.5 2.500001
vt -1.5 2
vt 0.5 2
vt -2 0.7500005
vt -0.5 2.5
vt 2 2.5
vt -1 0.2499999
vt -1.5 0.2499999
vt -1 0.7499999
vt -1 1.2815E-06
vt -0.5 0.2499999
vt -0.5 0.7499999
vt 0.5 0.2499999
vt -2 0.2499999
vt -1.5 -0.2500003
vt -1 -0.2500003
vt -1 -0.7500004
vt -0.5 -0.2500003
vt 0.5 -0.2500003
vt -0.5 -0.7500004
vt -0.7500001 2
vt 0.75 2
vt 0.5625003 0.25
vt 0.7500026 0.5000029
vt 0.6250011 -3.278255E-06
vt 0.3749979 -3.039834E-06
vt -1.41561E-06 0.5000019
vt 0.1874996 0.2499976
vt 0.1249995 -2.801419E-06
vt -1.460314E-06 -2.682209E-06
vt 0.1875002 1.75
vt 0.1249999 2.000002
vt 0.3750021 2.000002
vt 0.5625013 1.750004
vt 0.6250011 2.000003
vt 0.7500023 1.500003
vt -1.326203E-06 1.500002
vt -1.2815E-06 2.000002
vt 0.3749995 1.000001
vt 0.6250005 0.9999992
vt 0.5625001 1.250001
vt 0.5625009 0.7500022
vt -2 2.000002
# Vertex Normals: 6
vn 0 1 0
vn 0 0 1
vn 1 0 0
vn -1 0 0
vn 0 0 -1
vn 0 -1 0
# Faces: 48
f 4/4/1 3/3/1 2/2/1 1/1/1 
f 2/2/1 6/6/1 5/5/1 1/1/1 
f 3/3/1 8/8/1 7/7/1 2/2/1 
f 12/12/2 11/11/2 10/10/2 9/9/2 
f 14/16/3 12/15/3 9/14/3 13/13/3 
f 11/16/4 16/15/4 15/14/4 10/13/4 
f 16/3/5 14/6/5 13/18/5 15/17/5 
f 9/22/6 10/21/6 15/20/6 13/19/6 
f 4/11/2 5/12/2 18/24/2 17/23/2 
f 22/21/1 21/4/1 20/5/1 19/22/1 
f 16/15/4 4/27/4 21/26/4 22/25/4 
f 5/30/3 14/16/3 19/29/3 20/28/3 
f 14/6/5 16/3/5 22/32/5 19/31/5 
f 7/2/5 8/3/5 24/34/5 23/33/5 
f 28/19/1 27/35/1 26/8/1 25/20/1 
f 12/15/3 29/27/3 27/26/3 28/25/3 
f 8/30/4 11/16/4 25/29/4 26/28/4 
f 11/11/2 12/12/2 28/37/2 25/36/2 
f 33/40/6 32/7/6 31/39/6 30/38/6 
f 31/39/6 35/2/6 34/41/6 30/38/6 
f 38/44/6 17/8/6 37/43/6 36/42/6 
f 40/3/6 38/44/6 36/42/6 39/11/6 
f 37/43/6 33/40/6 30/38/6 36/42/6 
f 32/7/6 18/35/6 41/45/6 31/39/6 
f 41/45/6 42/6/6 35/2/6 31/39/6 
f 23/1/6 45/48/6 44/47/6 43/46/6 
f 44/47/6 34/41/6 35/2/6 43/46/6 
f 48/51/6 24/4/6 47/50/6 46/49/6 
f 45/48/6 48/51/6 46/49/6 44/47/6 
f 47/50/6 40/3/6 39/11/6 46/49/6 
f 24/53/4 26/28/4 21/26/4 17/52/4 
f 26/8/1 27/35/1 20/5/1 21/4/1 
f 27/26/3 49/52/3 18/53/3 20/28/3 
f 52/56/4 7/30/4 51/55/4 50/54/4 
f 53/57/4 52/56/4 50/54/4 
f 2/61/4 56/60/4 55/59/4 54/58/4 
f 56/60/4 53/57/4 55/59/4 
f 59/64/4 58/63/4 57/62/4 
f 61/66/4 59/64/4 60/65/4 
f 62/67/4 23/53/4 61/66/4 60/65/4 
f 58/63/4 35/69/4 63/68/4 57/62/4 
f 63/68/4 54/58/4 64/70/4 
f 62/67/4 66/72/4 65/71/4 
f 66/72/4 64/70/4 67/73/4 65/71/4 
f 51/55/4 62/67/4 65/71/4 
f 51/55/4 65/71/4 67/73/4 
f 29/27/3 6/61/3 42/69/3 49/52/3 
f 6/6/5 2/2/5 35/33/5 42/74/5 


g Mesh2
# Vertex Positions: 6
v 2 4.500001 -0.5000001
v 1 4.500001 -0.5000001
v 1 4.500001 -3.039837E-06
v 2 4.500001 -3.039837E-06
v 1 4.500001 0.5000002
v 2 4.500001 0.5000002
# Vertex UVs: 11
vt 0.2500002 2
vt 0.2500002 2.25
vt 1.654029E-06 2.250001
vt -0.2500001 2
vt -0.25 2.25
vt -0.5 2.25
vt -1 2.25
vt -1 2
vt 1 2
vt 1 2.25
vt 0.5 2.25
# Vertex Normals: 0
# Faces: 16
f 71/41/6 70/11/6 69/49/6 68/47/6 
f 34/69/4 71/77/4 68/76/4 30/75/4 
f 69/79/3 70/77/3 39/69/3 36/78/3 
f 30/82/2 68/81/2 69/80/2 36/23/2 
f 70/11/6 71/41/6 73/38/6 72/42/6 
f 73/79/4 71/77/4 34/69/4 44/78/4 
f 72/85/5 73/84/5 44/83/5 46/34/5 
f 39/69/3 70/77/3 72/76/3 46/75/3 
f 71/41/6 70/11/6 69/49/6 68/47/6 
f 34/69/4 71/77/4 68/76/4 30/75/4 
f 69/79/3 70/77/3 39/69/3 36/78/3 
f 30/82/2 68/81/2 69/80/2 36/23/2 
f 70/11/6 71/41/6 73/38/6 72/42/6 
f 73/79/4 71/77/4 34/69/4 44/78/4 
f 72/85/5 73/84/5 44/83/5 46/34/5 
f 39/69/3 70/77/3 72/76/3 46/75/3 


g Mesh3
# Vertex Positions: 2
v 2 0.9999999 0.7499999
v 2 3 0.7499999
# Vertex UVs: 5
vt 1 1
vt 0.6400002 0
vt 0 0.9999998
vt 0.36 1
vt 1 0
# Vertex Normals: 4
vn -0.5144958 -0.5144959 0.6859944
vn -0.5144958 -0.5144959 -0.6859944
vn -0.5144959 0.5144958 -0.6859944
vn -0.5144959 0.5144958 0.6859944
# Faces: 8
f 74/88/7 53/87/7 51/86/7 
f 74/88/8 54/86/8 53/87/8 
f 74/90/9 64/89/9 54/61/9 
f 74/90/10 51/61/10 64/89/10 
f 75/88/7 64/87/7 62/86/7 
f 75/88/8 63/86/8 64/87/8 
f 75/90/9 59/89/9 63/61/9 
f 75/90/10 62/61/10 59/89/10 


