g Mesh1
# Vertex Positions: 49
v 3 0 8.642675E-07
v 3 0 1.5
v -1 0 1.5
v -1 0 8.642675E-07
v 3 0 -1.5
v -1 0 -1.5
v 4 0 8.642675E-07
v 4 0 1.5
v 4 -1 2.5
v -1 -1 2.5
v -1 0 2.5
v 4 0 2.5
v 4 -1 -2.5
v 4 0 -2.5
v -1 -1 -2.5
v -1 0 -2.5
v -1 4 -1.5
v 3 4 -1.5
v 4 5.000002 -2.5
v 4 5.000002 -1.5
v -1 5.000002 -1.5
v -1 5.000002 -2.5
v 4 -4.768372E-07 -1.5
v 4 4 1.5
v -1 4 1.5
v -1 5.000001 2.5
v -1 5.000001 1.5
v 4 5.000001 1.5
v 4 5.000001 2.5
v 3 4 0.5000001
v 2 4 0.5000001
v 2 4 1.5
v 3 4 1.5
v 3 4 -1.788139E-07
v 2 4 -1.788139E-07
v 1 4 0.5000001
v -1 4 0.5000001
v 1 4 1.5
v 1 4 -1.788139E-07
v -1 4 -1.788139E-07
v 2 4 -0.5000002
v 3 4 -0.5000002
v 2 4 -1.5
v 1 4 -0.5000002
v 1 4 -1.5
v -1 4 -0.5000002
v 4 4 0.5000001
v 4 4 -1.788139E-07
v 4 4 -1.5
# Vertex UVs: 61
vt -1.5 3.725292E-07
vt -1.5 0.7500001
vt 0.5 0.7500001
vt 0.5 3.725292E-07
vt -1.5 -0.7500004
vt 0.5 -0.7500004
vt -2 3.725292E-07
vt -2 0.7500001
vt 2 0
vt -0.5 0
vt -0.5 0.5
vt 2 0.5
vt 1.25 0
vt -1.25 0
vt -1.25 0.5
vt 1.25 0.5
vt -2 0.5
vt 0.5 0.5
vt -2 1.25
vt 0.5 1.25
vt 0.5 -1.25
vt -2 -1.25
vt -0.5 2.5
vt 1.5 2.5
vt 1.5 0.4999998
vt -2 -0.7500008
vt -1.25 3.000001
vt -0.7499999 3.000001
vt -0.7500003 0.4999999
vt 0.7500001 3.000001
vt 1.25 3.000001
vt 0.7500005 0.4999999
vt -2 3.000001
vt 0.5 3.000001
vt -2 2.5
vt 0.5 2.5
vt -0.5 3
vt 2 3
vt -1.5 -0.2500004
vt -1 -0.2500004
vt -1 -0.7500004
vt -1 -2.086163E-07
vt -0.5 -0.2500004
vt 0.5 -0.2500004
vt -0.5 -0.7500004
vt -1 0.2499998
vt -1.5 0.2499998
vt -1 0.7499998
vt -0.5 0.2499998
vt -0.5 0.7499998
vt 0.5 0.2499998
vt -2 -0.2500004
vt -0.7500001 2.5
vt 0.75 2.5
vt 2.980232E-07 2.500001
vt -1.78814E-07 0.499999
vt -0.7500004 2
vt 5.960463E-08 2.000001
vt 6.258488E-07 -9.536743E-07
vt -0.7500005 -4.768372E-07
vt 2 2.500001
# Vertex Normals: 6
vn 0 1 0
vn 0 0 1
vn 1 0 0
vn -1 0 0
vn 0 0 -1
vn 0 -1 0
# Faces: 36
f 4/4/1 3/3/1 2/2/1 1/1/1 
f 6/6/1 4/4/1 1/1/1 5/5/1 
f 2/2/1 8/8/1 7/7/1 1/1/1 
f 12/12/2 11/11/2 10/10/2 9/9/2 
f 14/16/3 12/15/3 9/14/3 13/13/3 
f 11/16/4 16/15/4 15/14/4 10/13/4 
f 16/18/5 14/17/5 13/7/5 15/4/5 
f 9/22/6 10/21/6 15/20/6 13/19/6 
f 6/11/2 5/25/2 18/24/2 17/23/2 
f 22/21/1 21/6/1 20/26/1 19/22/1 
f 16/15/4 6/29/4 21/28/4 22/27/4 
f 23/32/3 14/16/3 19/31/3 20/30/3 
f 14/17/5 16/18/5 22/34/5 19/33/5 
f 8/17/5 3/18/5 25/36/5 24/35/5 
f 29/19/1 28/8/1 27/3/1 26/20/1 
f 12/15/3 8/29/3 28/28/3 29/27/3 
f 3/32/4 11/16/4 26/31/4 27/30/4 
f 11/11/2 12/12/2 29/38/2 26/37/2 
f 33/5/6 32/41/6 31/40/6 30/39/6 
f 31/40/6 35/42/6 34/1/6 30/39/6 
f 38/45/6 25/6/6 37/44/6 36/43/6 
f 32/41/6 38/45/6 36/43/6 31/40/6 
f 37/44/6 40/4/6 39/10/6 36/43/6 
f 43/48/6 18/2/6 42/47/6 41/46/6 
f 42/47/6 34/1/6 35/42/6 41/46/6 
f 46/51/6 17/3/6 45/50/6 44/49/6 
f 40/4/6 46/51/6 44/49/6 39/10/6 
f 45/50/6 43/48/6 41/46/6 44/49/6 
f 24/26/6 33/5/6 30/39/6 47/52/6 
f 30/39/6 34/1/6 48/7/6 47/52/6 
f 25/54/4 27/30/4 21/28/4 17/53/4 
f 27/3/1 28/8/1 20/26/1 21/6/1 
f 28/28/3 24/53/3 49/54/3 20/30/3 
f 7/56/3 23/32/3 49/54/3 48/55/3 
f 5/60/4 1/59/4 34/58/4 18/57/4 
f 1/25/2 7/12/2 48/61/2 34/24/2 


g Mesh2
# Vertex Positions: 6
v 1 4.500001 0.5000002
v 2 4.500001 0.5000002
v 2 4.500001 -3.576282E-07
v 1 4.500001 -3.576282E-07
v 2 4.500001 -0.5000001
v 1 4.500001 -0.5000001
# Vertex UVs: 8
vt 1.5 0.2499998
vt 2 0.2499998
vt 1.5 -4.321337E-07
vt 0.25 0.2500005
vt 0.2499999 0
vt -1.092786E-08 0.2500005
vt 2 -0.2500003
vt 1.5 -0.2500003
# Vertex Normals: 0
# Faces: 8
f 53/64/6 52/9/6 51/63/6 50/62/6 
f 51/4/4 52/66/4 35/65/4 31/51/4 
f 50/4/5 51/59/5 31/67/5 36/51/5 
f 39/65/3 53/66/3 50/59/3 36/67/3 
f 52/9/6 53/64/6 55/69/6 54/68/6 
f 35/65/4 52/66/4 54/59/4 41/67/4 
f 55/4/3 53/66/3 39/65/3 44/51/3 
f 41/51/2 54/4/2 55/59/2 44/67/2 


